<?xml version="1.0" standalone="no"?>
<!DOCTYPE svg PUBLIC "-//W3C//DTD SVG 20010904//EN"
 "http://www.w3.org/TR/2001/REC-SVG-20010904/DTD/svg10.dtd">
<svg version="1.0" xmlns="http://www.w3.org/2000/svg"
 width="586.000000pt" height="668.000000pt" viewBox="0 0 586.000000 668.000000"
 preserveAspectRatio="xMidYMid meet">
<metadata>
Created by potrace 1.15, written by Peter Selinger 2001-2017
</metadata>
<g transform="translate(0.000000,668.000000) scale(0.100000,-0.100000)"
fill="#000000" stroke="none">
<path d="M1488 5832 l-1438 -827 3 -1654 2 -1653 319 -184 c175 -101 321 -184
325 -184 9 1 2246 5286 2246 5306 0 10 -4 19 -10 20 -5 2 -657 -369 -1447
-824z"/>
<path d="M3033 6587 c30 -77 2201 -5194 2206 -5200 4 -4 132 63 284 150 l276
158 1 1655 0 1656 -1362 784 c-750 431 -1374 791 -1388 799 -22 15 -24 15 -17
-2z"/>
<path d="M1968 3587 c-554 -1304 -1010 -2379 -1013 -2388 -5 -13 201 -135 983
-586 l989 -570 896 516 896 516 -1445 3 -1444 2 0 140 0 140 1550 0 c999 0
1550 3 1550 10 0 5 -435 1034 -966 2287 -532 1253 -969 2284 -971 2291 -3 6
-8 12 -12 12 -3 0 -459 -1068 -1013 -2373z"/>
</g>
</svg>
