<?xml version="1.0" standalone="no"?>
<!DOCTYPE svg PUBLIC "-//W3C//DTD SVG 20010904//EN"
 "http://www.w3.org/TR/2001/REC-SVG-20010904/DTD/svg10.dtd">
<svg version="1.0" xmlns="http://www.w3.org/2000/svg"
 width="680.000000pt" height="680.000000pt" viewBox="0 0 680.000000 680.000000"
 preserveAspectRatio="xMidYMid meet">
<metadata>
Created by potrace 1.15, written by Peter Selinger 2001-2017
</metadata>
<g transform="translate(0.000000,680.000000) scale(0.100000,-0.100000)"
fill="#000000" stroke="none">
<path d="M1211 6403 c-6 -12 19 -360 71 -1012 l80 -994 -142 -809 c-139 -790
-142 -811 -124 -829 11 -10 278 -181 594 -379 316 -199 578 -365 582 -369 4
-3 108 -324 231 -711 l224 -705 279 -217 279 -217 215 0 215 0 280 217 279
217 226 708 225 708 595 374 c402 252 596 380 598 392 2 10 -60 379 -138 820
l-140 801 80 998 c73 904 79 999 65 1013 -14 15 -18 14 -43 0 -15 -8 -327
-253 -694 -542 l-667 -527 -880 0 -879 0 -684 540 c-375 296 -691 539 -700
540 -10 0 -21 -8 -27 -17z m718 -608 c335 -264 609 -484 608 -488 -3 -10
-1099 -838 -1103 -834 -2 2 -35 397 -74 878 -38 481 -71 891 -74 912 -4 36 -3
37 15 25 10 -7 293 -229 628 -493z m3716 -408 c-40 -500 -75 -910 -77 -912 -5
-6 -1103 824 -1102 833 0 7 1247 993 1250 989 1 -1 -31 -411 -71 -910z m-1297
-139 c-2 -13 -65 -366 -139 -785 l-134 -762 -287 -134 -287 -135 -282 132
c-190 89 -285 138 -290 151 -5 11 -67 353 -139 760 -71 407 -133 752 -136 768
l-6 27 852 0 852 0 -4 -22z m-1634 -764 c73 -412 132 -750 131 -752 -2 -2
-227 61 -501 138 l-499 141 -190 187 c-104 103 -190 190 -190 194 0 8 1108
847 1113 843 2 -1 63 -340 136 -751z m2304 307 c287 -217 521 -398 520 -402
-2 -4 -89 -91 -194 -193 l-192 -186 -493 -139 c-271 -77 -495 -138 -498 -135
-4 3 151 896 247 1421 l15 83 36 -28 c20 -15 272 -204 559 -421z m-3237 -818
c31 -34 333 -723 322 -734 -15 -14 -925 -391 -930 -385 -3 3 51 329 121 725
69 395 126 724 126 731 0 11 296 -265 361 -337z m3929 -403 c69 -393 123 -716
119 -718 -8 -3 -919 375 -931 387 -4 4 62 166 147 361 l155 355 188 181 c133
129 188 177 191 165 2 -9 61 -338 131 -731z m-3298 118 l466 -201 67 -193 67
-193 -47 -68 c-27 -38 -51 -72 -55 -76 -8 -9 -697 276 -717 296 -10 11 -283
630 -283 643 0 8 -22 17 502 -208z m2678 204 c0 -8 -276 -642 -282 -646 -2 -1
-162 -69 -356 -150 -336 -141 -354 -147 -367 -130 -8 11 -33 46 -55 79 l-39
60 67 192 67 191 475 205 c261 113 478 206 483 206 4 1 7 -2 7 -7z m-2433
-187 c205 -59 249 -76 506 -196 155 -72 285 -134 290 -138 4 -4 -56 -519 -133
-1144 l-141 -1138 -42 -77 -42 -77 -5 1100 -5 1100 -75 204 -75 205 -260 113
c-143 62 -256 113 -252 113 5 0 110 -29 234 -65z m1918 59 c-5 -3 -122 -53
-259 -112 l-250 -108 -75 -209 -76 -210 -5 -1094 -5 -1094 -43 84 -43 84 -139
1130 c-76 622 -136 1133 -132 1136 4 4 131 64 282 135 243 113 301 136 500
195 190 57 287 82 245 63z m-2086 -720 c179 -75 336 -141 348 -148 21 -11 12
-26 -257 -411 -154 -220 -283 -399 -287 -397 -26 10 -1091 687 -1087 691 4 4
943 398 953 400 2 1 150 -60 330 -135z m2824 -60 c259 -108 475 -200 480 -203
5 -6 -1051 -681 -1085 -693 -9 -4 -551 773 -552 791 -1 9 111 61 339 157 187
79 341 143 343 144 1 0 215 -88 475 -196z m-1688 -892 c63 -513 115 -941 115
-952 0 -19 -8 -20 -240 -20 -185 0 -240 3 -240 13 0 25 231 1883 237 1907 8
32 -6 137 128 -948z m-622 -1290 c-34 -25 -194 -114 -198 -110 -2 2 24 489 60
1082 l63 1078 44 64 43 64 3 -1082 c2 -1023 1 -1084 -15 -1096z m1134 975 c35
-593 62 -1081 59 -1084 -2 -2 -51 22 -108 55 l-103 60 -3 858 c-2 473 0 959 4
1082 l6 222 41 -56 40 -57 64 -1080z m-1347 -2 l-56 -950 -41 125 c-23 69
-109 339 -192 601 l-152 477 247 351 c136 194 248 350 249 349 1 -2 -23 -430
-55 -953z m1625 591 l238 -338 -189 -594 c-119 -375 -191 -588 -196 -577 -5
16 -109 1765 -108 1838 0 17 4 25 9 20 5 -6 116 -162 246 -349z m-801 -1493
c-57 -93 -108 -169 -112 -170 -6 -2 -212 319 -212 331 0 3 97 6 214 6 l215 0
-105 -167z m-283 -49 l100 -159 -46 -3 c-43 -3 -56 3 -161 68 -63 40 -114 76
-112 80 17 45 104 188 111 181 4 -4 53 -80 108 -167z m509 80 c32 -60 48 -100
42 -106 -5 -5 -56 -38 -113 -73 -91 -57 -110 -65 -152 -65 -49 0 -49 0 -35 23
8 12 56 88 107 170 51 81 94 147 96 147 2 0 27 -43 55 -96z m-650 -241 c121
-75 127 -77 198 -81 l73 -4 -3 -47 -3 -46 -140 -71 -140 -72 -155 120 c-85 65
-163 127 -173 136 -16 17 -12 21 90 80 60 34 113 62 118 62 6 0 67 -35 135
-77z m871 15 c60 -34 109 -65 109 -68 -1 -3 -78 -64 -173 -137 l-172 -132
-140 74 -140 73 -3 45 -3 45 73 3 c71 4 76 6 198 81 69 43 129 78 134 78 5 0
57 -28 117 -62z m-422 -322 l124 -63 -48 -36 -48 -37 -164 0 -165 0 -44 32
c-24 17 -44 35 -44 40 0 10 230 127 250 127 8 0 71 -28 139 -63z"/>
</g>
</svg>
