<?xml version="1.0" standalone="no"?>
<!DOCTYPE svg PUBLIC "-//W3C//DTD SVG 20010904//EN"
 "http://www.w3.org/TR/2001/REC-SVG-20010904/DTD/svg10.dtd">
<svg version="1.0" xmlns="http://www.w3.org/2000/svg"
 width="1100.000000pt" height="670.000000pt" viewBox="0 0 1100.000000 670.000000"
 preserveAspectRatio="xMidYMid meet">
<metadata>
Created by potrace 1.15, written by Peter Selinger 2001-2017
</metadata>
<g transform="translate(0.000000,670.000000) scale(0.100000,-0.100000)"
fill="#000000" stroke="none">
<path d="M515 6488 c-3 -13 30 -459 74 -993 l79 -970 -141 -803 c-138 -791
-140 -803 -121 -821 10 -11 275 -180 589 -376 314 -197 571 -359 573 -360 1
-1 102 -316 224 -699 l222 -696 275 -214 c152 -117 286 -218 298 -224 14 -8
83 -12 196 -12 l174 0 291 226 292 226 25 81 c230 728 409 1286 419 1301 6 10
270 181 585 380 316 198 579 369 585 378 8 13 -25 217 -127 800 -76 431 -137
803 -137 827 0 24 34 465 75 979 42 515 75 947 73 961 -8 65 -22 55 -723 -499
l-670 -530 -870 0 -870 0 -670 530 c-425 336 -678 530 -692 530 -15 0 -24 -7
-28 -22z m709 -592 c334 -263 604 -481 601 -485 -31 -31 -1082 -817 -1086
-812 -4 3 -36 384 -73 846 -37 462 -69 864 -73 894 -5 45 -3 52 9 45 8 -5 288
-224 622 -488z m3666 -406 c-38 -481 -71 -881 -73 -888 -1 -8 -104 63 -252
175 -818 616 -845 637 -833 649 64 61 1224 961 1226 951 1 -7 -29 -406 -68
-887z m-1280 -127 c0 -14 -253 -1455 -265 -1509 -4 -16 -62 -48 -262 -142
-142 -66 -269 -126 -283 -132 -23 -10 -54 2 -305 120 -153 72 -280 132 -282
133 -3 3 -273 1522 -273 1537 0 7 289 10 835 10 773 0 835 -1 835 -17z m-1610
-757 c72 -406 129 -740 127 -742 -1 -2 -222 59 -490 135 l-488 139 -187 180
c-103 99 -188 186 -189 193 -2 12 1086 843 1094 836 1 -2 61 -335 133 -741z
m2250 317 l540 -408 -48 -48 c-26 -27 -114 -112 -195 -189 l-148 -141 -487
-138 c-267 -76 -487 -137 -489 -136 -1 2 56 331 127 732 72 402 130 734 130
739 0 4 7 5 15 2 9 -3 258 -189 555 -413z m-3001 -1183 c83 -190 151 -350 151
-355 0 -6 -206 -96 -457 -202 -350 -147 -459 -188 -461 -177 -3 13 233 1388
244 1423 2 8 76 -57 188 -165 l184 -179 151 -345z m3705 -35 c69 -390 123
-711 121 -713 -5 -6 -925 383 -925 391 0 11 266 620 294 672 27 52 379 396
383 375 2 -8 59 -334 127 -725z m-3250 115 l456 -195 18 -50 c11 -27 41 -113
67 -191 l49 -140 -53 -77 c-30 -42 -54 -77 -55 -77 0 1 -158 67 -351 148
l-350 147 -137 310 c-75 171 -137 315 -137 322 -1 15 -49 34 493 -197z m2627
168 c-126 -295 -256 -586 -265 -595 -10 -11 -662 -289 -692 -295 -7 -2 -36 30
-64 71 l-51 75 66 190 66 191 472 202 c260 111 475 202 479 203 4 0 -1 -19
-11 -42z m-2369 -157 c185 -53 234 -72 480 -186 150 -71 278 -133 284 -139 8
-8 -28 -325 -127 -1126 l-138 -1115 -38 -72 -38 -73 -7 53 c-3 28 -6 507 -7
1063 l-1 1011 -75 213 c-41 117 -76 214 -77 216 -2 1 -114 50 -248 108 -135
58 -238 105 -230 106 8 0 108 -27 222 -59z m1624 -45 c-139 -59 -245 -111
-252 -122 -7 -10 -44 -104 -81 -209 l-68 -190 -5 -1080 -5 -1080 -43 85 -42
85 -136 1103 c-74 607 -134 1110 -132 1118 2 8 123 71 283 146 250 117 301
137 480 188 110 32 209 58 220 59 11 0 -88 -46 -219 -103z m-1756 -625 c169
-71 304 -134 302 -140 -1 -7 -123 -185 -270 -396 -183 -264 -271 -383 -281
-379 -21 7 -1070 668 -1071 674 0 3 213 93 473 201 469 196 472 197 507 183
19 -8 172 -72 340 -143z m2778 -56 c238 -99 432 -182 432 -185 0 -10 -1072
-680 -1081 -675 -12 8 -542 772 -541 781 0 5 152 72 338 150 l338 142 42 -17
c22 -9 235 -97 472 -196z m-1708 -870 c64 -517 115 -943 113 -947 -2 -5 -110
-8 -239 -8 -216 0 -234 1 -234 18 -1 43 235 1924 239 1902 2 -14 56 -448 121
-965z m-600 -189 l0 -1065 -102 -60 -103 -60 -3 32 c-2 18 24 493 58 1055 33
563 60 1029 60 1036 0 13 77 126 86 126 2 0 4 -479 4 -1064z m1003 1007 l38
-56 63 -1066 c35 -586 62 -1067 60 -1069 -1 -2 -49 23 -106 56 l-103 60 -3
1066 c-1 586 1 1066 5 1066 5 -1 25 -26 46 -57z m-1227 -1121 c-30 -503 -56
-915 -58 -918 -3 -2 -88 260 -191 582 l-186 586 242 346 c133 191 243 340 244
332 2 -8 -21 -426 -51 -928z m1412 856 c32 -46 140 -201 241 -345 l182 -262
-188 -592 c-103 -325 -189 -587 -190 -582 -1 4 -25 395 -52 868 -28 473 -53
890 -56 928 -4 37 -4 67 -1 67 3 0 31 -37 64 -82z m-510 -1600 c-8 -13 -57
-90 -108 -171 -51 -82 -96 -145 -100 -140 -13 16 -190 301 -196 317 -6 14 14
16 206 16 l212 0 -14 -22z m-379 -178 c56 -88 101 -164 101 -170 0 -5 -18 -10
-41 -10 -34 0 -62 13 -156 71 -63 39 -113 75 -111 79 5 12 102 190 104 190 1
0 48 -72 103 -160z m510 66 c28 -51 51 -96 51 -99 0 -3 -51 -37 -113 -76 -95
-59 -121 -71 -156 -71 -36 0 -42 3 -37 17 7 17 198 323 202 323 2 0 25 -42 53
-94z m-630 -245 l114 -71 74 0 73 0 0 -48 0 -47 -143 -72 -144 -71 -166 126
c-91 70 -165 131 -163 137 1 5 50 38 107 71 71 42 109 59 119 54 8 -4 66 -40
129 -79z m869 9 c51 -29 89 -56 85 -60 -4 -5 -82 -64 -172 -133 l-164 -126
-141 72 -141 72 -3 48 -3 47 74 0 75 0 128 80 c115 71 131 78 149 66 11 -7 62
-36 113 -66z m-447 -301 c66 -34 119 -65 119 -70 0 -4 -18 -21 -39 -38 l-39
-31 -168 0 -169 0 -40 36 c-22 19 -35 37 -30 40 6 2 60 31 120 64 61 33 114
60 119 60 4 0 62 -28 127 -61z"/>
<path d="M5162 2849 c-32 -83 -952 -2621 -952 -2624 0 -3 26 -5 59 -5 l58 0
408 1123 c224 617 415 1139 424 1160 l16 38 398 -1093 c218 -601 397 -1096
397 -1100 0 -5 -313 -8 -695 -8 l-695 0 0 -60 0 -60 780 0 779 0 -38 108
c-147 408 -923 2538 -927 2541 -2 2 -8 -7 -12 -20z"/>
<path d="M9785 2449 c-297 -29 -488 -145 -604 -369 -100 -191 -150 -499 -138
-845 19 -528 146 -817 421 -955 125 -63 212 -81 411 -87 188 -6 302 8 428 52
275 96 424 324 483 742 19 139 22 499 5 638 -69 550 -278 781 -746 825 -122
11 -131 11 -260 -1z m411 -133 c217 -57 357 -194 427 -421 43 -138 58 -256 64
-486 10 -397 -36 -671 -140 -836 -53 -84 -171 -181 -264 -217 -167 -66 -492
-73 -680 -15 -83 26 -202 107 -260 177 -128 156 -183 397 -184 795 0 300 26
489 88 646 73 183 215 309 403 357 131 34 419 34 546 0z"/>
<path d="M6430 2414 c0 -3 128 -227 285 -499 157 -271 285 -499 285 -505 0 -7
-151 -274 -335 -595 -184 -321 -335 -586 -335 -589 0 -3 28 -6 63 -6 l63 0
309 535 c169 295 311 532 315 528 4 -4 143 -245 310 -535 l304 -528 63 0 c35
0 63 2 63 5 0 3 -151 268 -335 589 -184 321 -335 589 -335 596 0 7 128 234
285 506 157 271 285 495 285 498 0 4 -28 6 -63 6 l-63 0 -255 -440 c-140 -242
-258 -441 -264 -441 -5 -1 -124 197 -264 440 l-255 441 -63 0 c-35 0 -63 -3
-63 -6z"/>
<path d="M8300 1320 l0 -1101 58 3 57 3 3 1098 2 1097 -60 0 -60 0 0 -1100z"/>
</g>
</svg>
