<?xml version="1.0" standalone="no"?>
<!DOCTYPE svg PUBLIC "-//W3C//DTD SVG 20010904//EN"
 "http://www.w3.org/TR/2001/REC-SVG-20010904/DTD/svg10.dtd">
<svg version="1.0" xmlns="http://www.w3.org/2000/svg"
 width="470.000000pt" height="423.000000pt" viewBox="0 0 470.000000 423.000000"
 preserveAspectRatio="xMidYMid meet">
<metadata>
Created by potrace 1.15, written by Peter Selinger 2001-2017
</metadata>
<g transform="translate(0.000000,423.000000) scale(0.100000,-0.100000)"
fill="#000000" stroke="none">
<path d="M2146 4179 c-197 -21 -397 -72 -566 -144 -412 -176 -747 -461 -977
-830 -199 -320 -297 -647 -310 -1030 -15 -440 100 -847 342 -1215 254 -384
638 -679 1071 -823 177 -59 286 -81 496 -102 153 -15 180 -15 331 -1 303 29
499 83 752 206 230 112 406 240 575 417 297 309 467 634 556 1058 26 121 28
147 28 380 1 255 -4 304 -45 485 -86 373 -277 718 -549 990 -409 411 -928 625
-1499 619 -69 -1 -162 -5 -205 -10z m444 -124 c597 -65 1133 -405 1454 -924
115 -187 204 -412 252 -646 26 -120 28 -148 28 -370 0 -189 -3 -260 -17 -335
-124 -659 -539 -1193 -1134 -1460 -265 -118 -509 -170 -803 -170 -591 0 -1154
266 -1516 716 -225 281 -354 565 -421 934 -26 146 -24 498 5 645 82 423 260
760 558 1059 246 245 558 420 904 507 222 56 450 70 690 44z"/>
<path d="M2309 3754 c-46 -54 -129 -152 -183 -216 -54 -65 -103 -118 -108
-118 -6 0 -39 23 -75 51 l-64 50 -166 -125 c-91 -69 -173 -126 -183 -126 -10
0 -91 43 -181 96 -90 53 -181 105 -203 116 l-39 20 -59 -59 c-121 -119 -239
-278 -327 -445 -50 -94 -131 -278 -131 -297 0 -8 543 -11 1781 -11 l1781 0 -7
28 c-14 60 -99 245 -154 338 -81 136 -168 252 -271 358 l-87 89 -59 -33 c-32
-18 -117 -67 -188 -108 -115 -68 -130 -74 -149 -62 -12 7 -81 60 -154 117
l-133 104 -71 -48 -72 -47 -206 214 -207 213 -85 -99z m186 -66 c49 -51 114
-119 144 -150 40 -42 49 -55 33 -51 -12 3 -25 9 -28 14 -3 5 -20 9 -38 9 -27
0 -45 -11 -91 -55 -32 -30 -63 -55 -69 -55 -7 0 -19 9 -29 20 -21 25 -34 25
-99 0 -29 -11 -56 -20 -60 -20 -4 0 -14 15 -22 34 -12 30 -20 35 -53 38 -21 2
-38 7 -37 12 1 14 238 295 250 295 5 1 50 -41 99 -91z m588 -312 c28 -26 32
-55 6 -47 -24 7 -83 2 -106 -10 -19 -10 -28 -6 -72 31 -28 24 -51 48 -51 54 0
6 23 26 52 43 l51 32 46 -38 c25 -22 59 -51 74 -65z m-1062 -17 c77 -61 137
-115 134 -120 -3 -4 -25 -14 -48 -20 -23 -6 -47 -20 -55 -30 -20 -28 -49 -23
-67 11 -14 26 -18 28 -39 18 -20 -9 -29 -7 -51 10 -21 17 -31 19 -61 10 -31
-8 -39 -7 -60 13 -13 12 -24 31 -24 41 0 22 -19 23 -65 4 -19 -8 -35 -11 -35
-6 0 8 218 179 229 180 2 0 66 -50 142 -111z"/>
<path d="M2362 2375 c-36 -30 -48 -31 -55 -5 -7 27 -25 25 -32 -2 -3 -13 -4
-140 -3 -283 l3 -260 30 0 30 0 5 238 5 238 25 20 c34 26 67 34 99 23 l26 -9
5 -255 5 -255 30 0 30 0 0 258 0 259 -33 29 c-27 24 -41 29 -86 29 -43 0 -61
-5 -84 -25z"/>
<path d="M2765 2367 c-24 -24 -35 -46 -40 -78 -11 -76 -1 -391 14 -420 20 -41
61 -59 131 -59 96 0 132 29 146 120 6 36 4 40 -19 45 -37 10 -47 -1 -47 -45 0
-47 -27 -70 -80 -70 -20 0 -46 7 -58 16 -20 14 -22 23 -22 114 l0 99 113 3
112 3 3 75 c5 118 -4 159 -45 197 -32 31 -39 33 -105 33 -66 0 -72 -2 -103
-33z m165 -37 c17 -17 20 -33 20 -105 l0 -85 -80 0 -80 0 0 85 c0 102 15 125
80 125 27 0 47 -7 60 -20z"/>
<path d="M3257 2371 c-18 -22 -27 -27 -36 -18 -6 6 -11 17 -11 24 0 7 -7 13
-15 13 -13 0 -15 -38 -15 -285 l0 -285 30 0 30 0 0 220 c0 200 2 224 20 260
21 40 47 56 79 45 21 -6 31 -33 31 -82 0 -28 4 -33 24 -33 30 0 38 22 30 79
-9 62 -40 91 -98 91 -37 0 -48 -5 -69 -29z"/>
<path d="M3556 2366 c-24 -22 -36 -43 -37 -62 -4 -84 7 -103 118 -215 90 -92
105 -112 110 -147 7 -54 -20 -82 -80 -82 -64 0 -85 20 -89 83 -3 50 -4 52 -33
52 -30 0 -30 0 -28 -55 4 -101 38 -130 152 -130 63 0 74 3 102 28 24 21 32 39
36 74 9 76 -8 106 -122 216 -103 99 -105 102 -105 146 0 54 24 76 82 76 55 0
78 -27 78 -90 0 -49 1 -50 30 -50 l30 0 0 61 c0 56 -3 64 -34 95 -32 32 -38
34 -104 34 -66 0 -73 -2 -106 -34z"/>
<path d="M1076 2198 c-71 -119 -116 -204 -116 -220 l0 -27 113 -3 112 -3 5
-60 c5 -59 6 -60 35 -60 30 0 30 1 33 59 3 48 7 59 23 63 26 7 26 49 -1 56
-18 5 -20 15 -22 194 l-3 188 -32 3 c-31 3 -33 0 -147 -190z m110 -185 c-6
-15 -156 -19 -156 -4 0 6 35 68 78 138 l77 128 3 -124 c1 -69 0 -131 -2 -138z"/>
<path d="M1470 2106 l0 -286 30 0 30 0 0 218 c1 166 3 212 12 197 10 -17 87
-297 88 -318 0 -5 15 -7 32 -5 l33 3 45 165 45 165 5 -210 5 -210 30 0 30 0 0
280 0 280 -42 3 c-52 4 -47 12 -100 -190 -21 -80 -42 -148 -47 -150 -5 -2 -30
74 -56 167 l-46 170 -47 3 -47 3 0 -285z"/>
<path d="M2035 2378 c-3 -7 -4 -135 -3 -283 l3 -270 30 0 30 0 0 280 0 280
-28 3 c-16 2 -29 -2 -32 -10z"/>
<path d="M590 1521 c0 -21 56 -154 106 -256 192 -384 496 -677 897 -864 358
-168 769 -212 1180 -126 153 32 276 75 416 145 387 195 674 477 861 849 39 78
100 231 100 252 0 5 -687 9 -1780 9 -1020 0 -1780 -4 -1780 -9z m1851 -171
c27 -15 24 -25 -22 -97 -47 -71 -48 -71 -99 5 -50 75 -37 102 48 102 29 0 62
-5 73 -10z m-21 -782 c22 -33 40 -65 40 -69 0 -18 -47 -39 -88 -39 -53 0 -82
14 -82 41 0 22 68 129 82 129 4 0 26 -28 48 -62z"/>
</g>
</svg>
